<svg width="24" height="24" viewBox="0 0 24 24" fill="none" xmlns="http://www.w3.org/2000/svg">
<path d="M14 10H13.5V10.5H14V10ZM19.3536 5.35355C19.5488 5.15829 19.5488 4.84171 19.3536 4.64645C19.1583 4.45118 18.8417 4.45118 18.6464 4.64645L19 5L19.3536 5.35355ZM14 4H13.5V10H14H14.5V4H14ZM14 10V10.5H20V10V9.5H14V10ZM14 10L14.3536 10.3536L19.3536 5.35355L19 5L18.6464 4.64645L13.6464 9.64645L14 10Z" fill="#222222"/>
<path d="M10 14H10.5V13.5H10V14ZM4.64645 18.6464C4.45118 18.8417 4.45118 19.1583 4.64645 19.3536C4.84171 19.5488 5.15829 19.5488 5.35355 19.3536L5 19L4.64645 18.6464ZM10 20H10.5V14H10H9.5V20H10ZM10 14V13.5H4V14V14.5H10V14ZM10 14L9.64645 13.6464L4.64645 18.6464L5 19L5.35355 19.3536L10.3536 14.3536L10 14Z" fill="#222222"/>
</svg>
