<svg width="24" height="24" viewBox="0 0 24 24" fill="none" xmlns="http://www.w3.org/2000/svg">
<path d="M12.9978 2.92976C12.4569 2.93096 11.9703 3.07846 11.529 3.33596C11.2501 3.49886 10.7266 3.95436 9.8728 4.74226C9.8378 4.77456 9.0329 5.54316 8.6228 5.92976C8.3745 5.92956 7.1147 5.92906 6.9978 5.92976C5.3731 5.93996 4.0098 7.31156 3.9978 8.92975V14.9298C4.0156 16.6133 5.3189 17.9453 6.9978 17.9298C7.0735 17.9291 8.3382 17.9294 8.5916 17.9298C8.9904 18.3081 9.8084 19.0865 9.8416 19.1173C10.6808 19.8974 11.1966 20.3287 11.4666 20.4923C11.9202 20.7673 12.4301 20.9363 12.9978 20.9298C14.6635 20.9106 16.0176 19.5792 15.9978 17.9298L15.9666 11.9298L15.9978 5.92976C15.9962 4.25886 14.6433 2.92616 12.9978 2.92976ZM12.9978 4.92976C13.5421 4.92856 13.9973 5.37476 13.9978 5.92976L13.9666 11.9298L13.9978 17.9298C14.0043 18.471 13.5687 18.9232 12.9978 18.9298C12.8214 18.9318 12.6451 18.8941 12.4978 18.8048C12.4055 18.7488 11.8911 18.2756 11.2166 17.6486C11.1768 17.6116 9.7729 16.2956 9.6853 16.211C9.4989 16.0313 9.2568 15.9298 8.9978 15.9298C8.9095 15.9298 7.136 15.9285 6.9978 15.9298C6.4381 15.935 6.004 15.5144 5.9978 14.9298V8.92975C6.0017 8.41006 6.4699 7.93305 6.9978 7.92976C7.1776 7.92866 8.8285 7.92966 8.9978 7.92976C9.2559 7.92976 9.4991 7.82725 9.6853 7.64855C9.7735 7.56385 11.1741 6.25016 11.2166 6.21096C11.8937 5.58606 12.4411 5.10606 12.529 5.05476C12.6788 4.96736 12.8282 4.93016 12.9978 4.92976ZM19.1228 7.92976C18.8693 7.89456 18.6243 7.95065 18.404 8.11726C17.9636 8.45046 17.8521 9.08305 18.1853 9.52355C18.7037 10.2089 18.9978 11.042 18.9978 11.9298C18.9978 12.808 18.7016 13.6485 18.1853 14.336C17.8537 14.7777 17.9624 15.4107 18.404 15.7423C18.8457 16.0739 19.4787 15.9652 19.8103 15.5236C20.5844 14.4927 20.9978 13.2451 20.9978 11.9298C20.9978 10.6043 20.5902 9.36706 19.8103 8.33596C19.6437 8.11576 19.3763 7.96495 19.1228 7.92976Z" fill="#2A343D"/>
</svg>
