<svg width="24" height="24" viewBox="0 0 24 24" fill="none" xmlns="http://www.w3.org/2000/svg">
<path d="M14.029 2.92975C13.6389 2.93065 13.2252 3.05985 12.9666 3.21095C12.5086 3.47865 8.99781 5.92975 8.99781 5.92975C8.99781 5.92975 6.324 5.92775 5.9978 5.92975C4.9173 5.93655 4.0057 6.86245 3.9978 7.92975V15.9298C4.0096 17.0436 4.8652 17.9403 5.9978 17.9298C6.2805 17.9272 8.99781 17.9298 8.99781 17.9298C8.99781 17.9298 12.577 20.4054 13.029 20.6798C13.2912 20.8389 13.5886 20.9345 13.9978 20.9298C15.1155 20.9169 16.0109 19.9898 15.9978 18.8986V11.9298V4.92975C15.9967 3.80685 15.1098 2.92735 14.029 2.92975ZM19.1228 7.92975C18.8693 7.89455 18.6243 7.95065 18.404 8.11725C17.9636 8.45045 17.8521 9.08305 18.1853 9.52355C18.7037 10.2089 18.9978 11.042 18.9978 11.9298C18.9978 12.808 18.7016 13.6485 18.1853 14.336C17.8537 14.7777 17.9624 15.4107 18.404 15.7423C18.8457 16.0739 19.4787 15.9652 19.8103 15.5236C20.5844 14.4927 20.9978 13.2451 20.9978 11.9298C20.9978 10.6043 20.5901 9.36705 19.8103 8.33595C19.6437 8.11575 19.3763 7.96495 19.1228 7.92975Z" fill="#2A343D"/>
</svg>
