<svg width="24" height="24" viewBox="0 0 24 24" fill="none" xmlns="http://www.w3.org/2000/svg">
<path d="M10.999 2.92976C10.458 2.93096 9.97152 3.07846 9.53022 3.33596C9.25132 3.49886 8.72782 3.95436 7.87402 4.74226C7.83902 4.77456 7.03412 5.54316 6.62402 5.92976C6.37572 5.92956 5.11592 5.92906 4.99902 5.92976C3.37432 5.93996 2.01102 7.31156 1.99902 8.92975V14.9298C2.01682 16.6133 3.32012 17.9453 4.99902 17.9298C5.07472 17.9291 6.33943 17.9294 6.59283 17.9298C6.99163 18.3081 7.80963 19.0865 7.84283 19.1173C8.68203 19.8974 9.19783 20.3287 9.46783 20.4923C9.92143 20.7673 10.431 20.9363 10.999 20.9298C12.665 20.9106 14.019 19.5792 13.999 17.9298L13.968 11.9298L13.999 5.92976C13.997 4.25886 12.644 2.92616 10.999 2.92976ZM10.999 4.92976C11.543 4.92856 11.998 5.37476 11.999 5.92976L11.968 11.9298L11.999 17.9298C12.005 18.471 11.57 18.9232 10.999 18.9298C10.823 18.9318 10.646 18.8941 10.499 18.8048C10.407 18.7488 9.89233 18.2756 9.21783 17.6486C9.17803 17.6116 7.77412 16.2956 7.68652 16.211C7.50012 16.0313 7.25792 15.9298 6.99902 15.9298C6.91072 15.9298 5.13722 15.9285 4.99902 15.9298C4.43932 15.935 4.00522 15.5144 3.99902 14.9298V8.92975C4.00292 8.41006 4.47102 7.93305 4.99902 7.92976C5.17882 7.92866 6.82972 7.92966 6.99902 7.92976C7.25712 7.92976 7.50022 7.82725 7.68652 7.64855C7.77472 7.56385 9.17533 6.25016 9.21783 6.21096C9.89493 5.58606 10.442 5.10606 10.53 5.05476C10.68 4.96736 10.829 4.93016 10.999 4.92976ZM16.999 8.92975C16.743 8.92975 16.476 9.01576 16.28 9.21096C15.89 9.60156 15.89 10.258 16.28 10.6486L17.561 11.9298L16.28 13.211C15.89 13.6016 15.89 14.258 16.28 14.6486C16.671 15.0391 17.327 15.0391 17.718 14.6486L18.999 13.3673L20.28 14.6486C20.671 15.0391 21.327 15.0391 21.718 14.6486C22.108 14.258 22.108 13.6016 21.718 13.211L20.437 11.9298L21.718 10.6486C22.108 10.258 22.108 9.60156 21.718 9.21096C21.522 9.01576 21.255 8.92975 20.999 8.92975C20.743 8.92975 20.476 9.01576 20.28 9.21096L18.999 10.4923L17.718 9.21096C17.522 9.01576 17.255 8.92975 16.999 8.92975Z" fill="#2A343D"/>
</svg>
