<svg width="24" height="24" viewBox="0 0 24 24" fill="none" xmlns="http://www.w3.org/2000/svg">
<path d="M12.03 2.92975C11.64 2.93065 11.226 3.05985 10.968 3.21095C10.51 3.47865 6.99903 5.92975 6.99903 5.92975C6.99903 5.92975 4.32502 5.92775 3.99902 5.92975C2.91802 5.93655 2.00702 6.86245 1.99902 7.92975V15.9298C2.01102 17.0436 2.86602 17.9403 3.99902 17.9298C4.28202 17.9272 6.99903 17.9298 6.99903 17.9298C6.99903 17.9298 10.578 20.4054 11.03 20.6798C11.292 20.8389 11.59 20.9345 11.999 20.9298C13.117 20.9169 14.012 19.9898 13.999 18.8986V11.9298V4.92975C13.998 3.80685 13.111 2.92735 12.03 2.92975ZM16.999 8.92975C16.743 8.92975 16.475 9.01575 16.28 9.21095C15.89 9.60155 15.89 10.258 16.28 10.6486L17.561 11.9298L16.28 13.211C15.89 13.6016 15.89 14.258 16.28 14.6486C16.671 15.0391 17.327 15.0391 17.718 14.6486L18.999 13.3673L20.28 14.6486C20.671 15.0391 21.327 15.0391 21.718 14.6486C22.108 14.258 22.108 13.6016 21.718 13.211L20.437 11.9298L21.718 10.6486C22.108 10.258 22.108 9.60155 21.718 9.21095C21.522 9.01575 21.255 8.92975 20.999 8.92975C20.743 8.92975 20.475 9.01575 20.28 9.21095L18.999 10.4923L17.718 9.21095C17.522 9.01575 17.255 8.92975 16.999 8.92975Z" fill="#2A343D"/>
</svg>
